<?xml version="1.0" standalone="no"?>
<!DOCTYPE svg PUBLIC "-//W3C//DTD SVG 20010904//EN"
 "http://www.w3.org/TR/2001/REC-SVG-20010904/DTD/svg10.dtd">
<svg version="1.0" xmlns="http://www.w3.org/2000/svg"
 width="260.000000pt" height="260.000000pt" viewBox="0 0 260.000000 260.000000"
 preserveAspectRatio="xMidYMid meet">
<metadata>
Created by potrace 1.14, written by Peter Selinger 2001-2017
</metadata>
<g transform="translate(0.000000,260.000000) scale(0.100000,-0.100000)"
fill="#000000" stroke="none">
<path d="M0 1300 l0 -1300 1300 0 1300 0 0 1300 0 1300 -1300 0 -1300 0 0
-1300z m1049 103 c130 -282 239 -513 242 -513 3 0 110 232 239 515 l234 515
188 0 c160 0 188 -2 188 -15 0 -11 -11 -15 -40 -15 -54 0 -104 -22 -127 -56
-17 -26 -18 -64 -21 -534 -2 -278 0 -529 3 -558 10 -80 42 -112 123 -119 43
-4 62 -10 62 -19 0 -12 -50 -14 -280 -14 -242 0 -280 2 -280 15 0 11 11 15 41
15 58 0 109 27 125 67 12 27 14 123 12 518 l-3 486 -250 -550 c-208 -458 -253
-551 -269 -549 -14 2 -78 134 -270 552 l-251 550 -3 -481 c-2 -365 1 -490 10
-519 16 -48 62 -74 131 -74 35 0 47 -4 47 -15 0 -13 -33 -15 -235 -15 -192 0
-235 3 -235 14 0 9 18 15 58 19 66 5 95 20 114 56 19 36 19 1107 0 1143 -19
34 -63 58 -122 65 -33 4 -50 10 -50 20 0 11 34 13 191 11 l192 -3 236 -512z
m1121 -1083 l0 -50 -885 0 -885 0 0 50 0 50 885 0 885 0 0 -50z"/>
</g>
</svg>
